<?xml version="1.0" standalone="no"?>
<!DOCTYPE svg PUBLIC "-//W3C//DTD SVG 20010904//EN"
 "http://www.w3.org/TR/2001/REC-SVG-20010904/DTD/svg10.dtd">
<svg version="1.0" xmlns="http://www.w3.org/2000/svg"
 width="256.000000pt" height="256.000000pt" viewBox="0 0 256.000000 256.000000"
 preserveAspectRatio="xMidYMid meet">

<g transform="translate(0.000000,256.000000) scale(0.100000,-0.100000)"
fill="#000000" stroke="none">
<path d="M553 2485 c-27 -16 -49 -40 -62 -68 -21 -43 -21 -50 -21 -983 0 -894
1 -941 19 -980 10 -23 34 -52 52 -65 l34 -24 705 0 705 0 34 24 c18 13 42 42
52 65 18 39 19 86 19 980 0 934 0 940 -21 983 -14 29 -35 52 -63 68 l-43 25
-684 0 -684 0 -42 -25z m1398 -15 c19 -5 48 -24 65 -41 l29 -30 3 -956 c2
-945 2 -955 -18 -988 -41 -66 -28 -65 -750 -65 -722 0 -709 -1 -750 65 -20 32
-20 47 -20 983 l0 951 31 36 c17 19 45 39 63 44 43 13 1301 14 1347 1z"/>
<path d="M581 2394 c-21 -27 -21 -31 -21 -964 l0 -937 26 -24 26 -24 670 0
670 0 24 28 24 28 0 933 c0 929 0 933 -21 960 l-20 26 -679 0 -679 0 -20 -26z
m273 -26 c20 -75 -21 -174 -87 -213 -51 -29 -113 -40 -149 -26 l-28 11 0 105
c0 143 2 145 149 145 104 0 109 -1 115 -22z m813 -15 c-15 -90 33 -185 116
-233 44 -25 63 -30 120 -30 l67 0 -2 -657 -3 -657 -57 3 c-136 6 -242 -98
-241 -236 l0 -63 -387 0 -387 0 0 63 c1 138 -105 242 -241 236 l-57 -3 -3 657
-2 657 67 0 c57 0 76 5 120 30 83 48 131 143 116 233 l-6 37 393 0 393 0 -6
-37z m283 17 c17 -17 20 -33 20 -125 l0 -105 -27 -11 c-37 -14 -99 -3 -150 26
-66 39 -107 138 -87 213 6 21 11 22 115 22 96 0 111 -2 129 -20z m-1234 -1635
c99 -29 163 -137 138 -232 -6 -22 -11 -23 -120 -23 -145 0 -146 1 -142 151 l3
104 30 6 c17 4 33 7 36 8 3 0 28 -6 55 -14z m1247 -2 c4 -2 7 -50 7 -106 0
-146 -1 -147 -144 -147 -109 0 -114 1 -120 23 -25 93 38 202 135 232 39 12 99
11 122 -2z"/>
<path d="M650 2255 l0 -84 33 5 c62 11 113 64 124 127 l6 37 -82 0 -81 0 0
-85z"/>
<path d="M946 2292 c-18 -136 -117 -234 -258 -257 l-38 -6 0 -599 0 -600 38 0
c23 0 64 -12 100 -31 91 -45 142 -117 157 -222 l7 -47 327 0 327 0 12 62 c17
93 69 163 150 205 40 21 78 33 103 33 l39 0 0 600 0 599 -37 6 c-142 23 -241
121 -259 257 l-7 48 -327 0 -327 0 -7 -48z m638 -33 c19 -118 119 -222 244
-250 l52 -12 0 -564 c0 -498 -2 -563 -15 -563 -36 0 -130 -42 -171 -76 -53
-43 -101 -122 -110 -181 l-6 -43 -298 0 -297 0 -7 42 c-19 119 -133 230 -259
253 l-37 7 0 562 0 563 52 12 c125 28 225 132 244 250 l7 41 297 0 297 0 7
-41z"/>
<path d="M1071 2127 c-6 -8 -8 -17 -4 -20 8 -9 418 -9 426 0 4 3 2 12 -4 20
-16 19 -402 19 -418 0z"/>
<path d="M1233 1862 c-23 -37 -43 -73 -45 -80 -2 -7 18 -22 45 -34 l47 -21 48
21 c26 12 46 27 44 34 -5 18 -85 148 -92 148 -3 0 -24 -31 -47 -68z m72 -37
c22 -39 17 -48 -25 -48 -16 0 -33 3 -37 7 -8 7 26 76 37 76 4 0 15 -16 25 -35z"/>
<path d="M930 1777 c0 -37 55 -229 81 -283 28 -59 29 -65 14 -87 -31 -47 -106
-309 -93 -323 9 -8 238 55 294 82 l54 25 54 -25 c56 -27 285 -90 294 -82 13
14 -62 276 -93 323 -15 22 -14 28 14 86 29 58 86 268 79 287 -5 13 -226 -46
-291 -79 l-59 -29 -41 23 c-74 41 -307 103 -307 82z m165 -67 c44 -12 104 -35
133 -51 l52 -29 53 29 c52 29 236 85 246 75 10 -10 -39 -179 -69 -239 l-31
-59 30 -61 c33 -65 80 -230 69 -241 -10 -9 -184 42 -245 73 l-53 26 -52 -26
c-62 -31 -236 -82 -246 -73 -11 11 36 176 69 243 l31 61 -25 44 c-26 43 -77
203 -77 240 0 14 5 18 18 14 9 -2 53 -14 97 -26z"/>
<path d="M1056 1621 c15 -50 34 -97 59 -141 22 -37 18 -64 -14 -123 -39 -69
-65 -157 -47 -157 22 0 127 39 161 60 41 26 89 26 130 0 34 -21 139 -60 161
-60 15 0 -24 123 -56 174 -27 44 -25 78 6 132 30 51 66 164 53 164 -22 0 -136
-44 -176 -67 -46 -27 -82 -26 -115 3 -14 14 -148 64 -168 64 -5 0 -2 -22 6
-49z"/>
<path d="M879 1497 c-112 -68 -110 -58 -26 -111 41 -25 79 -46 84 -46 5 0 18
21 29 48 l20 47 -20 47 c-12 26 -24 48 -27 48 -3 0 -30 -15 -60 -33z m55 -33
c8 -22 7 -47 -3 -63 -7 -11 -15 -10 -46 9 -39 24 -39 24 2 51 35 22 40 23 47
3z"/>
<path d="M1594 1483 c-20 -48 -20 -48 0 -95 11 -27 24 -48 29 -48 5 0 43 21
84 46 l74 47 -43 29 c-40 27 -113 68 -121 68 -1 0 -12 -21 -23 -47z m80 -24
c20 -12 36 -22 36 -24 0 -2 -16 -13 -36 -26 -30 -18 -38 -19 -45 -8 -10 16
-11 41 -3 63 8 20 6 20 48 -5z"/>
<path d="M1227 1117 l-48 -22 40 -65 c23 -36 45 -72 50 -80 12 -18 9 -21 65
70 l47 75 -48 22 c-26 12 -50 22 -53 22 -3 0 -27 -10 -53 -22z m77 -30 c17
-13 17 -15 2 -45 -9 -18 -21 -32 -26 -32 -5 0 -17 14 -26 32 -15 30 -15 32 2
45 10 7 21 13 24 13 3 0 14 -6 24 -13z"/>
<path d="M1065 759 c-16 -25 19 -29 221 -27 178 3 209 5 209 18 0 13 -31 15
-212 18 -147 2 -214 -1 -218 -9z"/>
<path d="M1753 2303 c11 -63 62 -116 125 -127 l32 -5 0 84 0 85 -81 0 -82 0 6
-37z"/>
<path d="M650 610 l0 -80 81 0 82 0 -6 36 c-11 67 -70 124 -129 124 l-28 0 0
-80z"/>
<path d="M1823 670 c-40 -24 -62 -57 -70 -104 l-6 -36 82 0 81 0 0 80 0 80
-27 0 c-16 0 -42 -9 -60 -20z"/>
</g>
</svg>
